<svg width="582" height="200" viewBox="0 0 582 200" fill="none" xmlns="http://www.w3.org/2000/svg">
<rect width="582" height="200" fill="#34495E"/>
<path d="M230.6 100.155C226.579 98.9997 223.65 97.5837 221.811 95.9072C219.988 94.2145 219.076 92.1312 219.076 89.6572C219.076 86.8577 220.191 84.5465 222.421 82.7236C224.667 80.8844 227.58 79.9648 231.161 79.9648C233.603 79.9648 235.775 80.4368 237.68 81.3809C239.6 82.3249 241.081 83.627 242.123 85.2871C243.181 86.9473 243.71 88.762 243.71 90.7314H238.998C238.998 88.583 238.314 86.8984 236.947 85.6777C235.58 84.4408 233.651 83.8223 231.161 83.8223C228.85 83.8223 227.043 84.335 225.741 85.3604C224.455 86.3695 223.812 87.7773 223.812 89.584C223.812 91.0326 224.423 92.2614 225.644 93.2705C226.881 94.2633 228.972 95.1748 231.918 96.0049C234.88 96.835 237.191 97.7546 238.852 98.7637C240.528 99.7565 241.765 100.92 242.562 102.255C243.376 103.59 243.783 105.16 243.783 106.967C243.783 109.848 242.66 112.159 240.414 113.9C238.168 115.626 235.165 116.488 231.405 116.488C228.964 116.488 226.685 116.024 224.569 115.097C222.453 114.153 220.818 112.867 219.662 111.239C218.523 109.612 217.953 107.764 217.953 105.697H222.665C222.665 107.846 223.454 109.547 225.033 110.8C226.628 112.037 228.752 112.655 231.405 112.655C233.879 112.655 235.775 112.151 237.094 111.142C238.412 110.132 239.071 108.757 239.071 107.016C239.071 105.274 238.461 103.931 237.24 102.987C236.02 102.027 233.806 101.083 230.6 100.155ZM253.622 92.7822C255.624 90.3245 258.228 89.0957 261.435 89.0957C267.017 89.0957 269.833 92.2451 269.882 98.5439V116H265.365V98.5195C265.349 96.6152 264.91 95.2074 264.047 94.2959C263.201 93.3844 261.874 92.9287 260.067 92.9287C258.603 92.9287 257.317 93.3193 256.21 94.1006C255.103 94.8818 254.241 95.9072 253.622 97.1768V116H249.105V78.5H253.622V92.7822ZM292.953 116C292.693 115.479 292.481 114.551 292.318 113.217C290.219 115.398 287.712 116.488 284.799 116.488C282.195 116.488 280.054 115.756 278.378 114.291C276.718 112.81 275.888 110.938 275.888 108.676C275.888 105.925 276.929 103.793 279.013 102.279C281.112 100.749 284.058 99.9844 287.851 99.9844H292.245V97.9092C292.245 96.3304 291.773 95.0771 290.829 94.1494C289.885 93.2054 288.493 92.7334 286.654 92.7334C285.043 92.7334 283.692 93.1403 282.602 93.9541C281.511 94.7679 280.966 95.7526 280.966 96.9082H276.425C276.425 95.5898 276.889 94.3203 277.816 93.0996C278.76 91.8626 280.03 90.8861 281.625 90.1699C283.236 89.4538 285.002 89.0957 286.923 89.0957C289.966 89.0957 292.351 89.8607 294.076 91.3906C295.801 92.9043 296.697 94.9958 296.762 97.665V109.823C296.762 112.248 297.071 114.177 297.689 115.609V116H292.953ZM285.458 112.558C286.874 112.558 288.217 112.191 289.486 111.459C290.756 110.727 291.675 109.774 292.245 108.603V103.183H288.705C283.171 103.183 280.404 104.802 280.404 108.041C280.404 109.457 280.876 110.564 281.82 111.361C282.764 112.159 283.977 112.558 285.458 112.558ZM316.61 93.6367C315.927 93.5228 315.186 93.4658 314.389 93.4658C311.426 93.4658 309.416 94.7272 308.358 97.25V116H303.842V89.584H308.236L308.31 92.6357C309.791 90.2757 311.89 89.0957 314.608 89.0957C315.487 89.0957 316.155 89.2096 316.61 89.4375V93.6367ZM333.09 94.0762L341.61 80.4531H347.128L335.897 98.0801L347.396 116H341.83L333.09 102.133L324.301 116H318.759L330.282 98.0801L319.027 80.4531H324.521L333.09 94.0762Z" fill="#BDC3C7"/>
<path d="M315 148V156C315 156.53 315.211 157.039 315.586 157.414C315.961 157.789 316.47 158 317 158H329C329.53 158 330.039 157.789 330.414 157.414C330.789 157.039 331 156.53 331 156V148" stroke="#BDC3C7" stroke-width="2" stroke-linecap="round" stroke-linejoin="round"/>
<path d="M327 142L323 138L319 142" stroke="#BDC3C7" stroke-width="2" stroke-linecap="round" stroke-linejoin="round"/>
<path d="M323 138V151" stroke="#BDC3C7" stroke-width="2" stroke-linecap="round" stroke-linejoin="round"/>
<path d="M394 142V150C394 150.53 394.198 151.039 394.549 151.414C394.901 151.789 395.378 152 395.875 152H407.125C407.622 152 408.099 151.789 408.451 151.414C408.802 151.039 409 150.53 409 150V142" stroke="#BDC3C7" stroke-width="2" stroke-linecap="round" stroke-linejoin="round"/>
<path d="M405 136L401.5 132L398 136" stroke="#BDC3C7" stroke-width="2" stroke-linecap="round" stroke-linejoin="round"/>
<path d="M402 132V145" stroke="#BDC3C7" stroke-width="2" stroke-linecap="round" stroke-linejoin="round"/>
<path d="M350 69V77C350 77.5304 350.211 78.0391 350.586 78.4142C350.961 78.7893 351.47 79 352 79H364C364.53 79 365.039 78.7893 365.414 78.4142C365.789 78.0391 366 77.5304 366 77V69" stroke="#BDC3C7" stroke-width="2" stroke-linecap="round" stroke-linejoin="round"/>
<path d="M362 63L358 59L354 63" stroke="#BDC3C7" stroke-width="2" stroke-linecap="round" stroke-linejoin="round"/>
<path d="M358 59V72" stroke="#BDC3C7" stroke-width="2" stroke-linecap="round" stroke-linejoin="round"/>
<path d="M168.833 52V60C168.833 60.5304 169.035 61.0391 169.395 61.4142C169.754 61.7893 170.242 62 170.75 62H182.25C182.758 62 183.246 61.7893 183.605 61.4142C183.965 61.0391 184.167 60.5304 184.167 60V52" stroke="#BDC3C7" stroke-width="2" stroke-linecap="round" stroke-linejoin="round"/>
<path d="M180.333 46L176.5 42L172.667 46" stroke="#BDC3C7" stroke-width="2" stroke-linecap="round" stroke-linejoin="round"/>
<path d="M176.5 42V55" stroke="#BDC3C7" stroke-width="2" stroke-linecap="round" stroke-linejoin="round"/>
<path d="M205.25 156C206.838 156 208.125 154.657 208.125 153C208.125 151.343 206.838 150 205.25 150C203.662 150 202.375 151.343 202.375 153C202.375 154.657 203.662 156 205.25 156Z" stroke="#BDC3C7" stroke-width="2" stroke-linecap="round" stroke-linejoin="round"/>
<path d="M193.75 163C195.338 163 196.625 161.657 196.625 160C196.625 158.343 195.338 157 193.75 157C192.162 157 190.875 158.343 190.875 160C190.875 161.657 192.162 163 193.75 163Z" stroke="#BDC3C7" stroke-width="2" stroke-linecap="round" stroke-linejoin="round"/>
<path d="M205.25 170C206.838 170 208.125 168.657 208.125 167C208.125 165.343 206.838 164 205.25 164C203.662 164 202.375 165.343 202.375 167C202.375 168.657 203.662 170 205.25 170Z" stroke="#BDC3C7" stroke-width="2" stroke-linecap="round" stroke-linejoin="round"/>
<path d="M196.232 161.51L202.777 165.49" stroke="#BDC3C7" stroke-width="2" stroke-linecap="round" stroke-linejoin="round"/>
<path d="M202.768 154.51L196.232 158.49" stroke="#BDC3C7" stroke-width="2" stroke-linecap="round" stroke-linejoin="round"/>
<path d="M200 65C201.657 65 203 63.6569 203 62C203 60.3431 201.657 59 200 59C198.343 59 197 60.3431 197 62C197 63.6569 198.343 65 200 65Z" stroke="#BDC3C7" stroke-width="2" stroke-linecap="round" stroke-linejoin="round"/>
<path d="M188 72C189.657 72 191 70.6569 191 69C191 67.3431 189.657 66 188 66C186.343 66 185 67.3431 185 69C185 70.6569 186.343 72 188 72Z" stroke="#BDC3C7" stroke-width="2" stroke-linecap="round" stroke-linejoin="round"/>
<path d="M200 79C201.657 79 203 77.6569 203 76C203 74.3431 201.657 73 200 73C198.343 73 197 74.3431 197 76C197 77.6569 198.343 79 200 79Z" stroke="#BDC3C7" stroke-width="2" stroke-linecap="round" stroke-linejoin="round"/>
<path d="M190.59 70.51L197.42 74.49" stroke="#BDC3C7" stroke-width="2" stroke-linecap="round" stroke-linejoin="round"/>
<path d="M197.41 63.51L190.59 67.49" stroke="#BDC3C7" stroke-width="2" stroke-linecap="round" stroke-linejoin="round"/>
<path d="M317.25 36C318.838 36 320.125 34.6569 320.125 33C320.125 31.3431 318.838 30 317.25 30C315.662 30 314.375 31.3431 314.375 33C314.375 34.6569 315.662 36 317.25 36Z" stroke="#BDC3C7" stroke-width="2" stroke-linecap="round" stroke-linejoin="round"/>
<path d="M305.75 43C307.338 43 308.625 41.6569 308.625 40C308.625 38.3431 307.338 37 305.75 37C304.162 37 302.875 38.3431 302.875 40C302.875 41.6569 304.162 43 305.75 43Z" stroke="#BDC3C7" stroke-width="2" stroke-linecap="round" stroke-linejoin="round"/>
<path d="M317.25 50C318.838 50 320.125 48.6569 320.125 47C320.125 45.3431 318.838 44 317.25 44C315.662 44 314.375 45.3431 314.375 47C314.375 48.6569 315.662 50 317.25 50Z" stroke="#BDC3C7" stroke-width="2" stroke-linecap="round" stroke-linejoin="round"/>
<path d="M308.232 41.51L314.777 45.49" stroke="#BDC3C7" stroke-width="2" stroke-linecap="round" stroke-linejoin="round"/>
<path d="M314.768 34.51L308.232 38.49" stroke="#BDC3C7" stroke-width="2" stroke-linecap="round" stroke-linejoin="round"/>
<path d="M370.25 120C371.838 120 373.125 118.657 373.125 117C373.125 115.343 371.838 114 370.25 114C368.662 114 367.375 115.343 367.375 117C367.375 118.657 368.662 120 370.25 120Z" stroke="#BDC3C7" stroke-width="2" stroke-linecap="round" stroke-linejoin="round"/>
<path d="M358.75 127C360.338 127 361.625 125.657 361.625 124C361.625 122.343 360.338 121 358.75 121C357.162 121 355.875 122.343 355.875 124C355.875 125.657 357.162 127 358.75 127Z" stroke="#BDC3C7" stroke-width="2" stroke-linecap="round" stroke-linejoin="round"/>
<path d="M370.25 134C371.838 134 373.125 132.657 373.125 131C373.125 129.343 371.838 128 370.25 128C368.662 128 367.375 129.343 367.375 131C367.375 132.657 368.662 134 370.25 134Z" stroke="#BDC3C7" stroke-width="2" stroke-linecap="round" stroke-linejoin="round"/>
<path d="M361.232 125.51L367.778 129.49" stroke="#BDC3C7" stroke-width="2" stroke-linecap="round" stroke-linejoin="round"/>
<path d="M367.768 118.51L361.232 122.49" stroke="#BDC3C7" stroke-width="2" stroke-linecap="round" stroke-linejoin="round"/>
<path d="M265 156C266.657 156 268 157.343 268 159C268 160.657 266.657 162 265 162C263.343 162 262 160.657 262 159C262 157.343 263.343 156 265 156Z" stroke="#BDC3C7" stroke-width="2" stroke-linecap="round" stroke-linejoin="round"/>
<path d="M253 149C254.657 149 256 150.343 256 152C256 153.657 254.657 155 253 155C251.343 155 250 153.657 250 152C250 150.343 251.343 149 253 149Z" stroke="#BDC3C7" stroke-width="2" stroke-linecap="round" stroke-linejoin="round"/>
<path d="M265 142C266.657 142 268 143.343 268 145C268 146.657 266.657 148 265 148C263.343 148 262 146.657 262 145C262 143.343 263.343 142 265 142Z" stroke="#BDC3C7" stroke-width="2" stroke-linecap="round" stroke-linejoin="round"/>
<path d="M255.59 150.49L262.42 146.51" stroke="#BDC3C7" stroke-width="2" stroke-linecap="round" stroke-linejoin="round"/>
<path d="M262.41 157.49L255.59 153.51" stroke="#BDC3C7" stroke-width="2" stroke-linecap="round" stroke-linejoin="round"/>
<path d="M116.125 116V108C116.125 107.649 116.036 107.305 115.868 107.001C115.7 106.698 115.458 106.445 115.167 106.27L108.458 102.27C108.167 102.094 107.836 102.002 107.5 102.002C107.164 102.002 106.833 102.094 106.542 102.27L99.8333 106.27C99.5423 106.445 99.3005 106.698 99.1323 107.001C98.9641 107.305 98.8753 107.649 98.875 108V116C98.8753 116.351 98.9641 116.695 99.1323 116.999C99.3005 117.302 99.5423 117.555 99.8333 117.73L106.542 121.73C106.833 121.906 107.164 121.998 107.5 121.998C107.836 121.998 108.167 121.906 108.458 121.73L115.167 117.73C115.458 117.555 115.7 117.302 115.868 116.999C116.036 116.695 116.125 116.351 116.125 116Z" stroke="#BDC3C7" stroke-width="2" stroke-linecap="round" stroke-linejoin="round"/>
<path d="M241 178.001V169.999C241 169.648 240.912 169.304 240.746 169C240.581 168.696 240.342 168.444 240.056 168.269L233.444 164.268C233.157 164.092 232.832 164 232.5 164C232.168 164 231.843 164.092 231.556 164.268L224.944 168.269C224.658 168.444 224.419 168.696 224.254 169C224.088 169.304 224 169.648 224 169.999V178.001C224 178.352 224.088 178.696 224.254 179C224.419 179.304 224.658 179.556 224.944 179.731L231.556 183.732C231.843 183.908 232.168 184 232.5 184C232.832 184 233.157 183.908 233.444 183.732L240.056 179.731C240.342 179.556 240.581 179.304 240.746 179C240.912 178.696 241 178.352 241 178.001Z" stroke="#BDC3C7" stroke-width="2" stroke-linecap="round" stroke-linejoin="round"/>
<path d="M370 178.001V169.999C370 169.648 369.912 169.304 369.746 169C369.581 168.696 369.342 168.444 369.056 168.269L362.444 164.268C362.157 164.092 361.832 164 361.5 164C361.168 164 360.843 164.092 360.556 164.268L353.944 168.269C353.658 168.444 353.419 168.696 353.254 169C353.088 169.304 353 169.648 353 169.999V178.001C353 178.352 353.088 178.696 353.254 179C353.419 179.304 353.658 179.556 353.944 179.731L360.556 183.732C360.843 183.908 361.168 184 361.5 184C361.832 184 362.157 183.908 362.444 183.732L369.056 179.731C369.342 179.556 369.581 179.304 369.746 179C369.912 178.696 370 178.352 370 178.001Z" stroke="#BDC3C7" stroke-width="2" stroke-linecap="round" stroke-linejoin="round"/>
<path d="M276 63.0008V54.9992C276 54.6484 275.912 54.3038 275.746 54.0001C275.581 53.6964 275.342 53.4442 275.056 53.2688L268.444 49.268C268.157 49.0924 267.832 49 267.5 49C267.168 49 266.843 49.0924 266.556 49.268L259.944 53.2688C259.658 53.4442 259.419 53.6964 259.254 54.0001C259.088 54.3038 259 54.6484 259 54.9992V63.0008C259 63.3516 259.088 63.6962 259.254 63.9999C259.419 64.3036 259.658 64.5558 259.944 64.7312L266.556 68.732C266.843 68.9076 267.168 69 267.5 69C267.832 69 268.157 68.9076 268.444 68.732L275.056 64.7312C275.342 64.5558 275.581 64.3036 275.746 63.9999C275.912 63.6962 276 63.3516 276 63.0008Z" stroke="#BDC3C7" stroke-width="2" stroke-linecap="round" stroke-linejoin="round"/>
<path d="M398 95.0008V86.9992C398 86.6484 397.907 86.3038 397.732 86.0001C397.556 85.6964 397.304 85.4442 397 85.2688L390 81.268C389.696 81.0924 389.351 81 389 81C388.649 81 388.304 81.0924 388 81.268L381 85.2688C380.696 85.4442 380.444 85.6964 380.268 86.0001C380.093 86.3038 380 86.6484 380 86.9992V95.0008C380 95.3516 380.093 95.6962 380.268 95.9999C380.444 96.3036 380.696 96.5558 381 96.7312L388 100.732C388.304 100.908 388.649 101 389 101C389.351 101 389.696 100.908 390 100.732L397 96.7312C397.304 96.5558 397.556 96.3036 397.732 95.9999C397.907 95.6962 398 95.3516 398 95.0008Z" stroke="#BDC3C7" stroke-width="2" stroke-linecap="round" stroke-linejoin="round"/>
<path d="M450 114.001V105.999C450 105.648 449.912 105.304 449.746 105C449.581 104.696 449.342 104.444 449.056 104.269L442.444 100.268C442.157 100.092 441.832 100 441.5 100C441.168 100 440.843 100.092 440.556 100.268L433.944 104.269C433.658 104.444 433.419 104.696 433.254 105C433.088 105.304 433 105.648 433 105.999V114.001C433 114.352 433.088 114.696 433.254 115C433.419 115.304 433.658 115.556 433.944 115.731L440.556 119.732C440.843 119.908 441.168 120 441.5 120C441.832 120 442.157 119.908 442.444 119.732L449.056 115.731C449.342 115.556 449.581 115.304 449.746 115C449.912 114.696 450 114.352 450 114.001Z" stroke="#BDC3C7" stroke-width="2" stroke-linecap="round" stroke-linejoin="round"/>
<path d="M182 118.001V109.999C182 109.648 181.912 109.304 181.746 109C181.581 108.696 181.342 108.444 181.056 108.269L174.444 104.268C174.157 104.092 173.832 104 173.5 104C173.168 104 172.843 104.092 172.556 104.268L165.944 108.269C165.658 108.444 165.419 108.696 165.254 109C165.088 109.304 165 109.648 165 109.999V118.001C165 118.352 165.088 118.696 165.254 119C165.419 119.304 165.658 119.556 165.944 119.731L172.556 123.732C172.843 123.908 173.168 124 173.5 124C173.832 124 174.157 123.908 174.444 123.732L181.056 119.731C181.342 119.556 181.581 119.304 181.746 119C181.912 118.696 182 118.352 182 118.001Z" stroke="#BDC3C7" stroke-width="2" stroke-linecap="round" stroke-linejoin="round"/>
</svg>
